<svg width="125" height="32" viewBox="0 0 125 32" fill="none" xmlns="http://www.w3.org/2000/svg">
<g clip-path="url(#clip0_36091_106098)">
<path fill-rule="evenodd" clip-rule="evenodd" d="M124.445 0H26.5683C31.079 3.30831 34.0374 8.64397 34.1088 14.6941C34.2008 22.5022 29.456 29.2297 22.6787 32H124.445V0Z" fill="#FA6400"/>
<path fill-rule="evenodd" clip-rule="evenodd" d="M0.0195312 0V31.9979L15.999 32C24.8463 32 32.0195 24.8367 32.0195 16.0005C32.0195 7.16439 24.8463 0.00214776 15.999 0.00214776L0.0195312 0Z" fill="#FA6400"/>
<path fill-rule="evenodd" clip-rule="evenodd" d="M83.8059 8.49967C83.8059 8.9682 83.6475 9.36607 83.3315 9.69007C83.0153 10.0141 82.6225 10.1751 82.1521 10.1751C81.6833 10.1751 81.2934 10.0141 80.9865 9.69007C80.6787 9.36607 80.5254 8.9682 80.5254 8.49967C80.5254 8.029 80.6787 7.63167 80.9865 7.30847C81.2934 6.98473 81.6833 6.82153 82.1521 6.82153C82.6225 6.82153 83.0153 6.98473 83.3315 7.30847C83.6475 7.63167 83.8059 8.029 83.8059 8.49967Z" fill="white"/>
<path fill-rule="evenodd" clip-rule="evenodd" d="M68.1635 18.6927C67.7491 18.6927 67.2889 18.7185 66.7814 18.7697C66.2723 18.8225 65.7902 18.9223 65.3345 19.0684C64.8763 19.2151 64.4987 19.4297 64.1969 19.7145C63.8961 19.9983 63.7457 20.3724 63.7457 20.8377C63.7457 21.3548 63.9179 21.7503 64.2625 22.0265C64.6067 22.3009 64.9849 22.4399 65.3982 22.4399C65.7609 22.4399 66.1086 22.3713 66.4457 22.2324C66.7814 22.0937 67.0771 21.9385 67.3347 21.7665C67.6459 21.5777 67.9219 21.3548 68.1635 21.0961V18.6927ZM68.4217 24.5071L68.1881 23.0073H68.1371C68.0153 23.1287 67.8486 23.2876 67.6334 23.4863C67.4179 23.6839 67.1598 23.882 66.8587 24.0799C66.5569 24.2785 66.2073 24.45 65.8118 24.5967C65.4153 24.7428 64.9763 24.8167 64.4942 24.8167C64.0633 24.8167 63.6323 24.7303 63.2022 24.5572C62.7713 24.3855 62.3857 24.1356 62.0406 23.8087C61.6955 23.4815 61.4153 23.0775 61.1998 22.5945C60.9859 22.1124 60.8779 21.5692 60.8779 20.9665C60.8779 20.0193 61.1281 19.2703 61.627 18.7185C62.1257 18.1687 62.7414 17.7503 63.4742 17.4655C64.2057 17.1823 64.9939 16.9972 65.8379 16.9097C66.6809 16.8252 67.4574 16.7809 68.1635 16.7809V16.5489C68.1635 15.7215 68.0033 15.102 67.6849 14.6897C67.3665 14.2759 66.8014 14.0695 65.9931 14.0695C65.5801 14.0695 65.1705 14.1169 64.7662 14.2116C64.3617 14.3057 63.9955 14.4047 63.6673 14.5089C63.2889 14.6292 62.9182 14.7663 62.5569 14.9212L61.8598 13.0615C62.3419 12.8204 62.8579 12.6047 63.4091 12.4159C63.8571 12.2433 64.3691 12.0889 64.9475 11.9505C65.5238 11.8124 66.0966 11.7441 66.6641 11.7441C68.0929 11.7441 69.1931 12.1353 69.9582 12.9188C70.7249 13.7025 71.107 14.8007 71.107 16.2129V24.5071H68.4217Z" fill="white"/>
<path fill-rule="evenodd" clip-rule="evenodd" d="M80.6143 24.507H83.7153V12.0542H80.6143V24.507Z" fill="white"/>
<path fill-rule="evenodd" clip-rule="evenodd" d="M101.807 7.61075C101.807 8.07928 101.649 8.47715 101.332 8.80115C101.017 9.12515 100.624 9.28622 100.153 9.28622C99.6847 9.28622 99.2945 9.12515 98.9873 8.80115C98.6793 8.47715 98.5244 8.07928 98.5244 7.61075C98.5244 7.14008 98.6793 6.74275 98.9873 6.41955C99.2945 6.09582 99.6847 5.93262 100.153 5.93262C100.624 5.93262 101.017 6.09582 101.332 6.41955C101.649 6.74275 101.807 7.14008 101.807 7.61075Z" fill="white"/>
<path fill-rule="evenodd" clip-rule="evenodd" d="M98.6143 24.507H101.715V12.0542H98.6143V24.507Z" fill="white"/>
<path fill-rule="evenodd" clip-rule="evenodd" d="M111.058 18.6927C110.644 18.6927 110.184 18.7185 109.676 18.7697C109.167 18.8225 108.685 18.9223 108.229 19.0684C107.773 19.2151 107.393 19.4297 107.092 19.7145C106.79 19.9983 106.64 20.3724 106.64 20.8377C106.64 21.3548 106.812 21.7503 107.157 22.0265C107.501 22.3009 107.88 22.4399 108.294 22.4399C108.655 22.4399 109.004 22.3713 109.339 22.2324C109.676 22.0937 109.973 21.9385 110.232 21.7665C110.542 21.5777 110.817 21.3548 111.058 21.0961V18.6927ZM111.316 24.5071L111.083 23.0073H111.033C110.911 23.1287 110.743 23.2876 110.529 23.4863C110.314 23.6839 110.055 23.882 109.753 24.0799C109.452 24.2785 109.102 24.45 108.708 24.5967C108.31 24.7428 107.871 24.8167 107.39 24.8167C106.96 24.8167 106.528 24.7303 106.098 24.5572C105.667 24.3855 105.28 24.1356 104.934 23.8087C104.59 23.4815 104.31 23.0775 104.095 22.5945C103.879 22.1124 103.772 21.5692 103.772 20.9665C103.772 20.0193 104.022 19.2703 104.521 18.7185C105.021 18.1687 105.638 17.7503 106.37 17.4655C107.1 17.1823 107.889 16.9972 108.733 16.9097C109.577 16.8252 110.352 16.7809 111.058 16.7809V16.5489C111.058 15.7215 110.899 15.102 110.58 14.6897C110.261 14.2759 109.696 14.0695 108.888 14.0695C108.474 14.0695 108.065 14.1169 107.66 14.2116C107.256 14.3057 106.889 14.4047 106.562 14.5089C106.183 14.6292 105.813 14.7663 105.452 14.9212L104.754 13.0615C105.237 12.8204 105.752 12.6047 106.304 12.4159C106.752 12.2433 107.264 12.0889 107.841 11.9505C108.419 11.8124 108.991 11.7441 109.559 11.7441C110.988 11.7441 112.087 12.1353 112.853 12.9188C113.62 13.7025 114.003 14.8007 114.003 16.2129V24.5071H111.316Z" fill="white"/>
<path fill-rule="evenodd" clip-rule="evenodd" d="M77.3078 5.4917H74.2081L74.207 24.4989H77.3065L77.3078 5.4917Z" fill="white"/>
<path fill-rule="evenodd" clip-rule="evenodd" d="M58.6293 15.0447L52.408 15.0479V17.6612H55.5037V21.7665C55.3317 21.8031 55.1341 21.8367 54.9101 21.8708C54.7211 21.9047 54.4915 21.9313 54.2256 21.9479C53.9584 21.9657 53.6619 21.9737 53.3333 21.9737C52.5245 21.9737 51.779 21.8191 51.0998 21.5095C50.4192 21.1991 49.8339 20.7737 49.3432 20.2313C48.8523 19.6879 48.4685 19.0372 48.1933 18.2804C47.9184 17.5228 47.78 16.6868 47.78 15.774C47.78 14.8087 47.94 13.9351 48.2582 13.1519C48.576 12.3681 49.0203 11.7007 49.588 11.1495C50.1568 10.598 50.824 10.1727 51.5899 9.87106C52.3573 9.56973 53.18 9.4188 54.0581 9.4188C54.5237 9.4188 54.9501 9.43933 55.3365 9.48333C55.7237 9.52626 56.0637 9.57426 56.3571 9.6252C56.6848 9.69346 56.9941 9.75506 57.2869 9.806L58.1392 7.37799C57.7435 7.24039 57.304 7.1188 56.8213 7.01693C56.4077 6.93 55.9136 6.84466 55.3365 6.75773C54.7595 6.6724 54.1093 6.62866 53.3853 6.62866C52.1629 6.62866 51.0051 6.83933 49.9117 7.262C48.8168 7.68306 47.8573 8.29026 47.0307 9.08333C46.2043 9.87479 45.5493 10.8303 45.0669 11.9505C44.5856 13.0697 44.3438 14.3281 44.3438 15.7215C44.3438 17.1175 44.5592 18.3748 44.9893 19.4935C45.42 20.6132 46.015 21.5692 46.7723 22.3615C47.5296 23.1537 48.4208 23.7604 49.4459 24.1828C50.4709 24.6049 51.5696 24.8167 52.7408 24.8167C53.4632 24.8167 54.1776 24.7516 54.8843 24.6225C55.5904 24.4932 56.2195 24.3505 56.7699 24.1943C57.4245 24.0076 58.0446 23.7993 58.6307 23.5764L58.6293 15.0447Z" fill="white"/>
<path fill-rule="evenodd" clip-rule="evenodd" d="M96.2901 23.3015C95.8418 23.5935 95.3597 23.8522 94.8426 24.0754C94.3946 24.266 93.8778 24.4372 93.2935 24.5919C92.7058 24.7468 92.0954 24.825 91.4586 24.825C90.7351 24.825 90.0506 24.6778 89.4053 24.3855C88.7586 24.0924 88.1943 23.6839 87.7122 23.1588C87.2295 22.6332 86.845 22.0002 86.5615 21.2591C86.2797 20.5194 86.1367 19.6911 86.1367 18.7802C86.1367 17.8322 86.2922 16.937 86.6013 16.0927C86.9111 15.2492 87.3455 14.5044 87.9063 13.8586C88.4658 13.2116 89.1378 12.7002 89.921 12.3212C90.7052 11.9412 91.5703 11.7527 92.5178 11.7527C92.9663 11.7527 93.3866 11.7906 93.7837 11.8679C94.1786 11.9463 94.5407 12.0279 94.869 12.1135C95.2293 12.2175 95.5831 12.3295 95.9279 12.4495L95.1279 14.5423L94.6095 14.4132C94.4565 14.3788 94.2703 14.3447 94.0554 14.31C93.8394 14.2759 93.5221 14.2575 93.2645 14.2575C92.6967 14.2575 92.085 14.3658 91.6021 14.582C91.1197 14.7972 90.7066 15.0983 90.3626 15.4855C90.0173 15.8722 89.7466 16.3303 89.5487 16.8548C89.3501 17.3804 89.2508 17.9527 89.2508 18.5724C89.2508 19.6746 89.5527 20.5615 90.1556 21.2332C90.7591 21.9047 91.5506 22.242 92.5319 22.242C92.878 22.242 93.3831 22.2156 93.7183 22.1647C94.0554 22.1124 94.3519 22.0511 94.6095 21.9823C94.9197 21.914 95.1949 21.8191 95.4378 21.6994L96.2901 23.3015Z" fill="white"/>
<path fill-rule="evenodd" clip-rule="evenodd" d="M20.6606 8.29926L20.6604 8.30086C20.6524 8.30593 20.3993 8.46753 19.8132 8.64779C19.1318 8.85553 18.0028 9.08459 16.2878 9.11526C16.3225 7.41179 16.554 6.28699 16.7612 5.61313C16.9241 5.08673 17.07 4.83179 17.0964 4.78913C17.099 4.78513 17.1012 4.78166 17.1012 4.78166H17.0966V4.78113C17.0966 4.11659 16.558 3.57739 15.8932 3.57739C15.2284 3.57739 14.6892 4.11659 14.6892 4.78113V4.78166H14.6828C14.6828 4.78166 14.6857 4.78619 14.6905 4.79473C14.7246 4.85073 14.8665 5.10459 15.0238 5.61259C15.2308 6.28486 15.4622 7.40753 15.4961 9.11473C13.7774 9.08219 12.6449 8.85019 11.9641 8.64246C11.379 8.46193 11.1276 8.30086 11.1276 8.30086V8.30593L11.1225 8.29926C10.4542 8.29926 9.91211 8.84139 9.91211 9.50966C9.91211 10.1787 10.4542 10.7201 11.1225 10.7201L11.1276 10.7171V10.7195C11.1276 10.7195 11.378 10.5553 11.9673 10.3761C12.6446 10.1683 13.7694 9.93793 15.4774 9.90539C15.3881 11.7902 15.0545 12.875 14.8484 13.3753C14.7206 13.6737 14.4158 14.2502 13.9238 14.3937L13.9257 14.3966L15.8974 28.6147L17.858 14.3966L17.8601 14.3937C17.3657 14.2499 17.0604 13.6694 16.9324 13.3702C16.9241 13.3515 16.9172 13.3345 16.9097 13.3177V13.3174C16.7017 12.7955 16.3892 11.7259 16.3052 9.90619C18.0102 9.93926 19.1374 10.1694 19.8172 10.3771C20.3993 10.5542 20.6532 10.7147 20.6604 10.719L20.6606 10.7201C21.3294 10.7201 21.8708 10.1787 21.8708 9.50966C21.8708 8.84139 21.3294 8.29926 20.6606 8.29926Z" fill="white"/>
</g>
<defs>
<clipPath id="clip0_36091_106098">
<rect width="124.444" height="32" fill="white"/>
</clipPath>
</defs>
</svg>
